<mxfile host="65bd71144e">
    <diagram id="UJL6824CqROOyuCpoqxd" name="Page-1">
        <mxGraphModel dx="753" dy="1568" grid="1" gridSize="10" guides="1" tooltips="1" connect="1" arrows="1" fold="1" page="1" pageScale="1" pageWidth="850" pageHeight="1100" background="none" math="0" shadow="0">
            <root>
                <mxCell id="0"/>
                <mxCell id="1" parent="0"/>
                <mxCell id="RfPPVsYAJoz4dsqOc-ON-9" style="edgeStyle=orthogonalEdgeStyle;rounded=0;orthogonalLoop=1;jettySize=auto;html=1;entryX=0;entryY=0.5;entryDx=0;entryDy=0;" parent="1" source="RfPPVsYAJoz4dsqOc-ON-1" target="RfPPVsYAJoz4dsqOc-ON-8" edge="1">
                    <mxGeometry relative="1" as="geometry"/>
                </mxCell>
                <mxCell id="RfPPVsYAJoz4dsqOc-ON-1" value="&lt;font color=&quot;#000000&quot;&gt;Instruction Memory&lt;/font&gt;" style="whiteSpace=wrap;html=1;aspect=fixed;fillColor=#ffe6cc;strokeColor=#d79b00;" parent="1" vertex="1">
                    <mxGeometry x="480" y="460" width="120" height="120" as="geometry"/>
                </mxCell>
                <mxCell id="RfPPVsYAJoz4dsqOc-ON-5" style="edgeStyle=orthogonalEdgeStyle;rounded=0;orthogonalLoop=1;jettySize=auto;html=1;entryX=0;entryY=0.5;entryDx=0;entryDy=0;" parent="1" source="RfPPVsYAJoz4dsqOc-ON-4" target="RfPPVsYAJoz4dsqOc-ON-1" edge="1">
                    <mxGeometry relative="1" as="geometry">
                        <Array as="points">
                            <mxPoint x="460" y="520"/>
                            <mxPoint x="460" y="520"/>
                        </Array>
                    </mxGeometry>
                </mxCell>
                <mxCell id="85" style="edgeStyle=none;html=1;exitX=1;exitY=0.5;exitDx=0;exitDy=0;entryX=0;entryY=0.25;entryDx=0;entryDy=0;" edge="1" parent="1" source="RfPPVsYAJoz4dsqOc-ON-4" target="84">
                    <mxGeometry relative="1" as="geometry">
                        <Array as="points">
                            <mxPoint x="425" y="615"/>
                        </Array>
                    </mxGeometry>
                </mxCell>
                <mxCell id="RfPPVsYAJoz4dsqOc-ON-4" value="PC" style="rounded=0;whiteSpace=wrap;html=1;direction=south;" parent="1" vertex="1">
                    <mxGeometry x="405" y="475" width="40" height="80" as="geometry"/>
                </mxCell>
                <mxCell id="RfPPVsYAJoz4dsqOc-ON-34" value="" style="edgeStyle=orthogonalEdgeStyle;rounded=0;orthogonalLoop=1;jettySize=auto;html=1;" parent="1" source="RfPPVsYAJoz4dsqOc-ON-8" target="RfPPVsYAJoz4dsqOc-ON-13" edge="1">
                    <mxGeometry relative="1" as="geometry">
                        <Array as="points">
                            <mxPoint x="720" y="480"/>
                            <mxPoint x="720" y="480"/>
                        </Array>
                    </mxGeometry>
                </mxCell>
                <mxCell id="RfPPVsYAJoz4dsqOc-ON-35" value="" style="edgeStyle=orthogonalEdgeStyle;rounded=0;orthogonalLoop=1;jettySize=auto;html=1;" parent="1" source="RfPPVsYAJoz4dsqOc-ON-8" target="RfPPVsYAJoz4dsqOc-ON-13" edge="1">
                    <mxGeometry relative="1" as="geometry">
                        <Array as="points">
                            <mxPoint x="710" y="500"/>
                            <mxPoint x="710" y="500"/>
                        </Array>
                    </mxGeometry>
                </mxCell>
                <mxCell id="eisTL26Y4feQtT8YzyBo-103" style="edgeStyle=orthogonalEdgeStyle;rounded=0;orthogonalLoop=1;jettySize=auto;html=1;exitX=1.067;exitY=0.061;exitDx=0;exitDy=0;endArrow=classic;endFill=1;entryX=0;entryY=1;entryDx=0;entryDy=0;exitPerimeter=0;" parent="1" source="RfPPVsYAJoz4dsqOc-ON-8" target="eisTL26Y4feQtT8YzyBo-77" edge="1">
                    <mxGeometry relative="1" as="geometry">
                        <mxPoint x="800" as="targetPoint"/>
                        <Array as="points">
                            <mxPoint x="717" y="362"/>
                        </Array>
                    </mxGeometry>
                </mxCell>
                <mxCell id="18" value="&lt;span style=&quot;font-size: 14px&quot;&gt;To D.Flush&lt;/span&gt;" style="edgeLabel;html=1;align=center;verticalAlign=middle;resizable=0;points=[];rotation=90;" vertex="1" connectable="0" parent="eisTL26Y4feQtT8YzyBo-103">
                    <mxGeometry x="-0.5911" y="2" relative="1" as="geometry">
                        <mxPoint x="7" y="-26" as="offset"/>
                    </mxGeometry>
                </mxCell>
                <mxCell id="24" style="edgeStyle=none;html=1;exitX=1;exitY=0.25;exitDx=0;exitDy=0;entryX=0.6;entryY=0.988;entryDx=0;entryDy=0;entryPerimeter=0;" edge="1" parent="1" source="RfPPVsYAJoz4dsqOc-ON-8" target="eisTL26Y4feQtT8YzyBo-77">
                    <mxGeometry relative="1" as="geometry">
                        <Array as="points">
                            <mxPoint x="753" y="430"/>
                        </Array>
                    </mxGeometry>
                </mxCell>
                <mxCell id="25" value="&lt;font style=&quot;font-size: 14px&quot;&gt;OP code&lt;/font&gt;" style="edgeLabel;html=1;align=center;verticalAlign=middle;resizable=0;points=[];rotation=90;" vertex="1" connectable="0" parent="24">
                    <mxGeometry x="-0.3857" relative="1" as="geometry">
                        <mxPoint y="11" as="offset"/>
                    </mxGeometry>
                </mxCell>
                <mxCell id="41" style="edgeStyle=none;html=1;exitX=1;exitY=0.75;exitDx=0;exitDy=0;entryX=0;entryY=1;entryDx=0;entryDy=0;" edge="1" parent="1" source="RfPPVsYAJoz4dsqOc-ON-8" target="j_qc3P-5auPdPMbNX9wX-20">
                    <mxGeometry relative="1" as="geometry">
                        <Array as="points">
                            <mxPoint x="800" y="610"/>
                            <mxPoint x="800" y="600"/>
                        </Array>
                    </mxGeometry>
                </mxCell>
                <mxCell id="57" value="&lt;font color=&quot;#fcfcfc&quot; style=&quot;font-size: 14px&quot;&gt;Imm_value&lt;/font&gt;" style="edgeLabel;html=1;align=center;verticalAlign=middle;resizable=0;points=[];" vertex="1" connectable="0" parent="41">
                    <mxGeometry x="-0.375" y="-3" relative="1" as="geometry">
                        <mxPoint x="13" y="-13" as="offset"/>
                    </mxGeometry>
                </mxCell>
                <mxCell id="RfPPVsYAJoz4dsqOc-ON-8" value="&lt;div&gt;&lt;font color=&quot;#000000&quot;&gt;Fetch&lt;/font&gt;&lt;/div&gt;&lt;div&gt;&lt;font color=&quot;#000000&quot;&gt;Buffer&lt;/font&gt;&lt;/div&gt;" style="rounded=0;whiteSpace=wrap;html=1;fillColor=#dae8fc;strokeColor=#6c8ebf;" parent="1" vertex="1">
                    <mxGeometry x="610" y="340" width="60" height="360" as="geometry"/>
                </mxCell>
                <mxCell id="j_qc3P-5auPdPMbNX9wX-24" value="" style="edgeStyle=orthogonalEdgeStyle;rounded=0;orthogonalLoop=1;jettySize=auto;html=1;" parent="1" source="RfPPVsYAJoz4dsqOc-ON-10" target="j_qc3P-5auPdPMbNX9wX-20" edge="1">
                    <mxGeometry relative="1" as="geometry">
                        <Array as="points">
                            <mxPoint x="970" y="560"/>
                            <mxPoint x="970" y="560"/>
                        </Array>
                    </mxGeometry>
                </mxCell>
                <mxCell id="j_qc3P-5auPdPMbNX9wX-25" value="" style="edgeStyle=orthogonalEdgeStyle;rounded=0;orthogonalLoop=1;jettySize=auto;html=1;" parent="1" source="RfPPVsYAJoz4dsqOc-ON-10" target="58" edge="1">
                    <mxGeometry relative="1" as="geometry">
                        <Array as="points">
                            <mxPoint x="970" y="440"/>
                            <mxPoint x="970" y="380"/>
                        </Array>
                        <mxPoint x="1010" y="390" as="targetPoint"/>
                    </mxGeometry>
                </mxCell>
                <mxCell id="RfPPVsYAJoz4dsqOc-ON-10" value="&lt;div&gt;&lt;font color=&quot;#000000&quot;&gt;Decode&lt;br&gt;&lt;/font&gt;&lt;/div&gt;&lt;div&gt;&lt;font color=&quot;#000000&quot;&gt;Buffer&lt;/font&gt;&lt;/div&gt;" style="rounded=0;whiteSpace=wrap;html=1;fillColor=#dae8fc;strokeColor=#6c8ebf;" parent="1" vertex="1">
                    <mxGeometry x="900" y="340" width="60" height="360" as="geometry"/>
                </mxCell>
                <mxCell id="j_qc3P-5auPdPMbNX9wX-48" value="" style="edgeStyle=orthogonalEdgeStyle;rounded=0;orthogonalLoop=1;jettySize=auto;html=1;" parent="1" source="RfPPVsYAJoz4dsqOc-ON-11" target="j_qc3P-5auPdPMbNX9wX-45" edge="1">
                    <mxGeometry relative="1" as="geometry">
                        <Array as="points">
                            <mxPoint x="1290" y="550"/>
                            <mxPoint x="1290" y="550"/>
                        </Array>
                    </mxGeometry>
                </mxCell>
                <mxCell id="j_qc3P-5auPdPMbNX9wX-61" style="edgeStyle=orthogonalEdgeStyle;rounded=0;orthogonalLoop=1;jettySize=auto;html=1;exitX=1;exitY=1;exitDx=0;exitDy=0;entryX=-0.033;entryY=0.975;entryDx=0;entryDy=0;entryPerimeter=0;verticalAlign=middle;" parent="1" source="RfPPVsYAJoz4dsqOc-ON-11" target="RfPPVsYAJoz4dsqOc-ON-12" edge="1">
                    <mxGeometry relative="1" as="geometry">
                        <Array as="points">
                            <mxPoint x="1260" y="690"/>
                            <mxPoint x="1498" y="690"/>
                        </Array>
                    </mxGeometry>
                </mxCell>
                <mxCell id="RfPPVsYAJoz4dsqOc-ON-11" value="&lt;div&gt;&lt;font color=&quot;#000000&quot;&gt;&lt;br&gt;&lt;/font&gt;&lt;/div&gt;&lt;div&gt;&lt;font color=&quot;#000000&quot;&gt;Execute&lt;br&gt;&lt;/font&gt;&lt;/div&gt;&lt;div&gt;&lt;font color=&quot;#000000&quot;&gt;Buffer&lt;/font&gt;&lt;/div&gt;" style="rounded=0;whiteSpace=wrap;html=1;fillColor=#dae8fc;strokeColor=#6c8ebf;" parent="1" vertex="1">
                    <mxGeometry x="1200" y="340" width="60" height="370" as="geometry"/>
                </mxCell>
                <mxCell id="j_qc3P-5auPdPMbNX9wX-68" value="" style="edgeStyle=orthogonalEdgeStyle;rounded=0;orthogonalLoop=1;jettySize=auto;html=1;exitX=1;exitY=0.5;exitDx=0;exitDy=0;" parent="1" source="78" target="j_qc3P-5auPdPMbNX9wX-67" edge="1">
                    <mxGeometry relative="1" as="geometry">
                        <Array as="points">
                            <mxPoint x="1580" y="570"/>
                            <mxPoint x="1580" y="540"/>
                        </Array>
                    </mxGeometry>
                </mxCell>
                <mxCell id="j_qc3P-5auPdPMbNX9wX-69" value="" style="edgeStyle=orthogonalEdgeStyle;rounded=0;orthogonalLoop=1;jettySize=auto;html=1;" parent="1" source="RfPPVsYAJoz4dsqOc-ON-12" target="j_qc3P-5auPdPMbNX9wX-67" edge="1">
                    <mxGeometry relative="1" as="geometry">
                        <Array as="points">
                            <mxPoint x="1590" y="500"/>
                            <mxPoint x="1590" y="500"/>
                        </Array>
                    </mxGeometry>
                </mxCell>
                <mxCell id="RfPPVsYAJoz4dsqOc-ON-12" value="&lt;div&gt;&lt;font color=&quot;#000000&quot;&gt;Memory&lt;/font&gt;&lt;/div&gt;&lt;div&gt;&lt;font color=&quot;#000000&quot;&gt;Buffer&lt;/font&gt;&lt;/div&gt;" style="rounded=0;whiteSpace=wrap;html=1;fillColor=#dae8fc;strokeColor=#6c8ebf;" parent="1" vertex="1">
                    <mxGeometry x="1500" y="340" width="60" height="360" as="geometry"/>
                </mxCell>
                <mxCell id="RfPPVsYAJoz4dsqOc-ON-15" style="edgeStyle=orthogonalEdgeStyle;rounded=0;orthogonalLoop=1;jettySize=auto;html=1;exitX=1;exitY=0.75;exitDx=0;exitDy=0;" parent="1" source="RfPPVsYAJoz4dsqOc-ON-13" edge="1">
                    <mxGeometry relative="1" as="geometry">
                        <mxPoint x="899" y="550" as="targetPoint"/>
                    </mxGeometry>
                </mxCell>
                <mxCell id="RfPPVsYAJoz4dsqOc-ON-16" style="edgeStyle=orthogonalEdgeStyle;rounded=0;orthogonalLoop=1;jettySize=auto;html=1;exitX=1;exitY=0.25;exitDx=0;exitDy=0;" parent="1" source="RfPPVsYAJoz4dsqOc-ON-13" edge="1">
                    <mxGeometry relative="1" as="geometry">
                        <mxPoint x="900" y="490" as="targetPoint"/>
                    </mxGeometry>
                </mxCell>
                <mxCell id="eisTL26Y4feQtT8YzyBo-145" style="edgeStyle=orthogonalEdgeStyle;rounded=0;orthogonalLoop=1;jettySize=auto;html=1;endArrow=classic;endFill=1;entryX=0;entryY=0.75;entryDx=0;entryDy=0;" parent="1" source="j_qc3P-5auPdPMbNX9wX-67" target="RfPPVsYAJoz4dsqOc-ON-13" edge="1">
                    <mxGeometry relative="1" as="geometry">
                        <mxPoint x="1700" y="510" as="sourcePoint"/>
                        <Array as="points">
                            <mxPoint x="1700" y="510"/>
                            <mxPoint x="1700" y="900"/>
                            <mxPoint x="720" y="900"/>
                            <mxPoint x="720" y="550"/>
                        </Array>
                    </mxGeometry>
                </mxCell>
                <mxCell id="RfPPVsYAJoz4dsqOc-ON-13" value="&lt;div&gt;&lt;font color=&quot;#000000&quot;&gt;Register&lt;/font&gt;&lt;/div&gt;&lt;div&gt;&lt;font color=&quot;#000000&quot;&gt; File&lt;/font&gt;&lt;/div&gt;" style="whiteSpace=wrap;html=1;aspect=fixed;fillColor=#ffe6cc;strokeColor=#d79b00;" parent="1" vertex="1">
                    <mxGeometry x="740" y="460" width="120" height="120" as="geometry"/>
                </mxCell>
                <mxCell id="j_qc3P-5auPdPMbNX9wX-4" value="=" style="ellipse;whiteSpace=wrap;html=1;aspect=fixed;" parent="1" vertex="1">
                    <mxGeometry x="870" y="392.5" width="20" height="20" as="geometry"/>
                </mxCell>
                <mxCell id="eisTL26Y4feQtT8YzyBo-121" style="edgeStyle=orthogonalEdgeStyle;rounded=0;orthogonalLoop=1;jettySize=auto;html=1;exitX=1;exitY=0.933;exitDx=0;exitDy=0;endArrow=classic;endFill=1;entryX=0.5;entryY=1;entryDx=0;entryDy=0;exitPerimeter=0;" parent="1" source="RfPPVsYAJoz4dsqOc-ON-8" target="j_qc3P-5auPdPMbNX9wX-28" edge="1">
                    <mxGeometry relative="1" as="geometry">
                        <mxPoint x="1080" y="860" as="targetPoint"/>
                        <Array as="points">
                            <mxPoint x="750" y="676"/>
                            <mxPoint x="750" y="940"/>
                            <mxPoint x="1075" y="940"/>
                        </Array>
                    </mxGeometry>
                </mxCell>
                <mxCell id="17" value="&lt;font style=&quot;font-size: 14px&quot;&gt;Immediate value signal&lt;/font&gt;" style="edgeLabel;html=1;align=center;verticalAlign=middle;resizable=0;points=[];rotation=90;" vertex="1" connectable="0" parent="eisTL26Y4feQtT8YzyBo-121">
                    <mxGeometry x="-0.7949" y="-2" relative="1" as="geometry">
                        <mxPoint x="4" y="142" as="offset"/>
                    </mxGeometry>
                </mxCell>
                <mxCell id="eisTL26Y4feQtT8YzyBo-161" style="edgeStyle=orthogonalEdgeStyle;rounded=0;orthogonalLoop=1;jettySize=auto;html=1;exitX=1;exitY=0.25;exitDx=0;exitDy=0;entryX=0;entryY=0.75;entryDx=0;entryDy=0;endArrow=classic;endFill=1;" parent="1" source="j_qc3P-5auPdPMbNX9wX-14" target="j_qc3P-5auPdPMbNX9wX-18" edge="1">
                    <mxGeometry relative="1" as="geometry"/>
                </mxCell>
                <mxCell id="50" value="&lt;font style=&quot;font-size: 14px&quot;&gt;Alu selector&lt;/font&gt;" style="edgeLabel;html=1;align=center;verticalAlign=middle;resizable=0;points=[];rotation=90;" vertex="1" connectable="0" parent="eisTL26Y4feQtT8YzyBo-161">
                    <mxGeometry x="0.3712" y="-3" relative="1" as="geometry">
                        <mxPoint x="1" y="-6" as="offset"/>
                    </mxGeometry>
                </mxCell>
                <mxCell id="j_qc3P-5auPdPMbNX9wX-14" value="&lt;font color=&quot;#000000&quot;&gt;EX&lt;/font&gt;" style="whiteSpace=wrap;html=1;aspect=fixed;fillColor=#d5e8d4;strokeColor=#82b366;" parent="1" vertex="1">
                    <mxGeometry x="900" y="280" width="60" height="60" as="geometry"/>
                </mxCell>
                <mxCell id="eisTL26Y4feQtT8YzyBo-57" style="edgeStyle=orthogonalEdgeStyle;rounded=0;orthogonalLoop=1;jettySize=auto;html=1;exitX=1;exitY=0.25;exitDx=0;exitDy=0;endArrow=classic;endFill=1;entryX=0;entryY=0.5;entryDx=0;entryDy=0;" parent="1" source="j_qc3P-5auPdPMbNX9wX-15" target="j_qc3P-5auPdPMbNX9wX-53" edge="1">
                    <mxGeometry relative="1" as="geometry">
                        <mxPoint x="1041.4473814564212" y="120" as="targetPoint"/>
                        <Array as="points">
                            <mxPoint x="1170" y="175"/>
                            <mxPoint x="1170" y="250"/>
                        </Array>
                    </mxGeometry>
                </mxCell>
                <mxCell id="j_qc3P-5auPdPMbNX9wX-15" value="&lt;font color=&quot;#000000&quot;&gt;WR&lt;/font&gt;" style="whiteSpace=wrap;html=1;aspect=fixed;fillColor=#d5e8d4;strokeColor=#82b366;" parent="1" vertex="1">
                    <mxGeometry x="900" y="160" width="60" height="60" as="geometry"/>
                </mxCell>
                <mxCell id="j_qc3P-5auPdPMbNX9wX-16" value="&lt;font color=&quot;#000000&quot;&gt;M&lt;/font&gt;" style="whiteSpace=wrap;html=1;aspect=fixed;fillColor=#d5e8d4;strokeColor=#82b366;" parent="1" vertex="1">
                    <mxGeometry x="900" y="220" width="60" height="60" as="geometry"/>
                </mxCell>
                <mxCell id="j_qc3P-5auPdPMbNX9wX-46" value="" style="edgeStyle=orthogonalEdgeStyle;rounded=0;orthogonalLoop=1;jettySize=auto;html=1;" parent="1" source="j_qc3P-5auPdPMbNX9wX-18" target="RfPPVsYAJoz4dsqOc-ON-11" edge="1">
                    <mxGeometry relative="1" as="geometry"/>
                </mxCell>
                <mxCell id="30" style="edgeStyle=none;html=1;exitX=0;exitY=0.25;exitDx=0;exitDy=0;entryX=0.5;entryY=1;entryDx=0;entryDy=0;" edge="1" parent="1" source="j_qc3P-5auPdPMbNX9wX-18" target="29">
                    <mxGeometry relative="1" as="geometry">
                        <Array as="points">
                            <mxPoint x="1160" y="470"/>
                        </Array>
                    </mxGeometry>
                </mxCell>
                <mxCell id="j_qc3P-5auPdPMbNX9wX-18" value="ALU" style="shape=trapezoid;perimeter=trapezoidPerimeter;whiteSpace=wrap;html=1;fixedSize=1;direction=south;" parent="1" vertex="1">
                    <mxGeometry x="1100" y="460" width="80" height="120" as="geometry"/>
                </mxCell>
                <mxCell id="eisTL26Y4feQtT8YzyBo-156" style="edgeStyle=orthogonalEdgeStyle;rounded=0;orthogonalLoop=1;jettySize=auto;html=1;exitX=1;exitY=1;exitDx=0;exitDy=0;entryX=0.33;entryY=1;entryDx=0;entryDy=0;entryPerimeter=0;endArrow=classic;endFill=1;" parent="1" source="j_qc3P-5auPdPMbNX9wX-19" target="j_qc3P-5auPdPMbNX9wX-18" edge="1">
                    <mxGeometry relative="1" as="geometry"/>
                </mxCell>
                <mxCell id="j_qc3P-5auPdPMbNX9wX-19" value="&lt;div&gt;&lt;font color=&quot;#000000&quot;&gt;M&lt;/font&gt;&lt;/div&gt;&lt;div&gt;&lt;font color=&quot;#000000&quot;&gt;U&lt;/font&gt;&lt;/div&gt;&lt;div&gt;&lt;font color=&quot;#000000&quot;&gt;X&lt;/font&gt;&lt;/div&gt;" style="ellipse;whiteSpace=wrap;html=1;fillColor=#e1d5e7;strokeColor=#9673a6;" parent="1" vertex="1">
                    <mxGeometry x="1030" y="440" width="30" height="70" as="geometry"/>
                </mxCell>
                <mxCell id="eisTL26Y4feQtT8YzyBo-154" style="edgeStyle=orthogonalEdgeStyle;rounded=0;orthogonalLoop=1;jettySize=auto;html=1;exitX=1;exitY=0;exitDx=0;exitDy=0;entryX=0.75;entryY=1;entryDx=0;entryDy=0;endArrow=classic;endFill=1;" parent="1" source="j_qc3P-5auPdPMbNX9wX-20" target="j_qc3P-5auPdPMbNX9wX-18" edge="1">
                    <mxGeometry relative="1" as="geometry"/>
                </mxCell>
                <mxCell id="j_qc3P-5auPdPMbNX9wX-20" value="&lt;div&gt;&lt;font color=&quot;#000000&quot;&gt;M&lt;/font&gt;&lt;/div&gt;&lt;div&gt;&lt;font color=&quot;#000000&quot;&gt;U&lt;/font&gt;&lt;/div&gt;&lt;div&gt;&lt;font color=&quot;#000000&quot;&gt;X&lt;/font&gt;&lt;/div&gt;" style="ellipse;whiteSpace=wrap;html=1;fillColor=#e1d5e7;strokeColor=#9673a6;" parent="1" vertex="1">
                    <mxGeometry x="1030" y="540" width="30" height="70" as="geometry"/>
                </mxCell>
                <mxCell id="j_qc3P-5auPdPMbNX9wX-29" style="edgeStyle=orthogonalEdgeStyle;rounded=0;orthogonalLoop=1;jettySize=auto;html=1;exitX=0.5;exitY=0;exitDx=0;exitDy=0;" parent="1" source="j_qc3P-5auPdPMbNX9wX-28" target="j_qc3P-5auPdPMbNX9wX-19" edge="1">
                    <mxGeometry relative="1" as="geometry">
                        <Array as="points">
                            <mxPoint x="1070" y="680"/>
                            <mxPoint x="1070" y="530"/>
                            <mxPoint x="1035" y="530"/>
                        </Array>
                    </mxGeometry>
                </mxCell>
                <mxCell id="j_qc3P-5auPdPMbNX9wX-30" style="edgeStyle=orthogonalEdgeStyle;rounded=0;orthogonalLoop=1;jettySize=auto;html=1;exitX=0;exitY=0;exitDx=0;exitDy=0;entryX=0.5;entryY=1;entryDx=0;entryDy=0;" parent="1" source="j_qc3P-5auPdPMbNX9wX-28" target="j_qc3P-5auPdPMbNX9wX-20" edge="1">
                    <mxGeometry relative="1" as="geometry">
                        <Array as="points">
                            <mxPoint x="1035" y="690"/>
                        </Array>
                    </mxGeometry>
                </mxCell>
                <mxCell id="j_qc3P-5auPdPMbNX9wX-28" value="&lt;div&gt;Forwarding&lt;/div&gt;&lt;div&gt;Unit&lt;br&gt;&lt;/div&gt;" style="ellipse;whiteSpace=wrap;html=1;" parent="1" vertex="1">
                    <mxGeometry x="1020" y="680" width="110" height="70" as="geometry"/>
                </mxCell>
                <mxCell id="j_qc3P-5auPdPMbNX9wX-32" value="" style="endArrow=none;html=1;rounded=0;" parent="1" edge="1">
                    <mxGeometry width="50" height="50" relative="1" as="geometry">
                        <mxPoint x="1000" y="860" as="sourcePoint"/>
                        <mxPoint x="1300" y="490" as="targetPoint"/>
                        <Array as="points">
                            <mxPoint x="1300" y="860"/>
                        </Array>
                    </mxGeometry>
                </mxCell>
                <mxCell id="j_qc3P-5auPdPMbNX9wX-33" value="" style="endArrow=classic;html=1;rounded=0;entryX=0;entryY=0.5;entryDx=0;entryDy=0;" parent="1" target="j_qc3P-5auPdPMbNX9wX-19" edge="1">
                    <mxGeometry width="50" height="50" relative="1" as="geometry">
                        <mxPoint x="980" y="900" as="sourcePoint"/>
                        <mxPoint x="980" y="480" as="targetPoint"/>
                        <Array as="points">
                            <mxPoint x="980" y="520"/>
                            <mxPoint x="980" y="475"/>
                        </Array>
                    </mxGeometry>
                </mxCell>
                <mxCell id="19" value="MEM TO ALU" style="edgeLabel;html=1;align=center;verticalAlign=middle;resizable=0;points=[];rotation=90;" vertex="1" connectable="0" parent="j_qc3P-5auPdPMbNX9wX-33">
                    <mxGeometry x="-0.0695" y="1" relative="1" as="geometry">
                        <mxPoint as="offset"/>
                    </mxGeometry>
                </mxCell>
                <mxCell id="j_qc3P-5auPdPMbNX9wX-34" value="" style="endArrow=classic;html=1;rounded=0;entryX=0;entryY=0.5;entryDx=0;entryDy=0;" parent="1" target="j_qc3P-5auPdPMbNX9wX-20" edge="1">
                    <mxGeometry width="50" height="50" relative="1" as="geometry">
                        <mxPoint x="980" y="575" as="sourcePoint"/>
                        <mxPoint x="1120" y="580" as="targetPoint"/>
                    </mxGeometry>
                </mxCell>
                <mxCell id="j_qc3P-5auPdPMbNX9wX-36" value="" style="endArrow=classic;html=1;rounded=0;entryX=0;entryY=0.7;entryDx=0;entryDy=0;entryPerimeter=0;" parent="1" target="j_qc3P-5auPdPMbNX9wX-19" edge="1">
                    <mxGeometry width="50" height="50" relative="1" as="geometry">
                        <mxPoint x="1000" y="860" as="sourcePoint"/>
                        <mxPoint x="1000" y="490" as="targetPoint"/>
                        <Array as="points">
                            <mxPoint x="1000" y="489"/>
                        </Array>
                    </mxGeometry>
                </mxCell>
                <mxCell id="20" value="ALU TO ALU" style="edgeLabel;html=1;align=center;verticalAlign=middle;resizable=0;points=[];rotation=90;" vertex="1" connectable="0" parent="j_qc3P-5auPdPMbNX9wX-36">
                    <mxGeometry x="0.0673" y="-1" relative="1" as="geometry">
                        <mxPoint as="offset"/>
                    </mxGeometry>
                </mxCell>
                <mxCell id="j_qc3P-5auPdPMbNX9wX-37" value="" style="endArrow=classic;html=1;rounded=0;entryX=0;entryY=0.743;entryDx=0;entryDy=0;entryPerimeter=0;" parent="1" target="j_qc3P-5auPdPMbNX9wX-20" edge="1">
                    <mxGeometry width="50" height="50" relative="1" as="geometry">
                        <mxPoint x="1000" y="592" as="sourcePoint"/>
                        <mxPoint x="1020" y="600" as="targetPoint"/>
                    </mxGeometry>
                </mxCell>
                <mxCell id="j_qc3P-5auPdPMbNX9wX-43" style="edgeStyle=orthogonalEdgeStyle;rounded=0;orthogonalLoop=1;jettySize=auto;html=1;exitX=1;exitY=0.5;exitDx=0;exitDy=0;entryX=0;entryY=1;entryDx=0;entryDy=0;" parent="1" source="j_qc3P-5auPdPMbNX9wX-39" target="j_qc3P-5auPdPMbNX9wX-28" edge="1">
                    <mxGeometry relative="1" as="geometry"/>
                </mxCell>
                <mxCell id="j_qc3P-5auPdPMbNX9wX-39" value="&lt;font color=&quot;#000000&quot;&gt;R_src2&lt;br&gt;&lt;/font&gt;&lt;span style=&quot;color: rgb(0 , 0 , 0)&quot;&gt;address&lt;/span&gt;&lt;font color=&quot;#000000&quot;&gt;&lt;br&gt;&lt;/font&gt;" style="whiteSpace=wrap;html=1;aspect=fixed;fillColor=#d5e8d4;strokeColor=#82b366;" parent="1" vertex="1">
                    <mxGeometry x="900" y="760" width="60" height="60" as="geometry"/>
                </mxCell>
                <mxCell id="j_qc3P-5auPdPMbNX9wX-42" value="" style="edgeStyle=orthogonalEdgeStyle;rounded=0;orthogonalLoop=1;jettySize=auto;html=1;" parent="1" source="j_qc3P-5auPdPMbNX9wX-40" target="j_qc3P-5auPdPMbNX9wX-28" edge="1">
                    <mxGeometry relative="1" as="geometry">
                        <Array as="points">
                            <mxPoint x="1020" y="740"/>
                            <mxPoint x="1020" y="740"/>
                        </Array>
                    </mxGeometry>
                </mxCell>
                <mxCell id="j_qc3P-5auPdPMbNX9wX-40" value="&lt;font color=&quot;#000000&quot;&gt;R_src1&lt;br&gt;address&lt;br&gt;&lt;/font&gt;" style="whiteSpace=wrap;html=1;aspect=fixed;fillColor=#d5e8d4;strokeColor=#82b366;" parent="1" vertex="1">
                    <mxGeometry x="900" y="700" width="60" height="60" as="geometry"/>
                </mxCell>
                <mxCell id="j_qc3P-5auPdPMbNX9wX-41" value="" style="endArrow=classic;html=1;rounded=0;entryX=0;entryY=0.5;entryDx=0;entryDy=0;exitX=1.017;exitY=0.778;exitDx=0;exitDy=0;exitPerimeter=0;" parent="1" source="RfPPVsYAJoz4dsqOc-ON-8" target="j_qc3P-5auPdPMbNX9wX-40" edge="1">
                    <mxGeometry width="50" height="50" relative="1" as="geometry">
                        <mxPoint x="710" y="620" as="sourcePoint"/>
                        <mxPoint x="1020" y="670" as="targetPoint"/>
                        <Array as="points">
                            <mxPoint x="790" y="620"/>
                            <mxPoint x="790" y="730"/>
                        </Array>
                    </mxGeometry>
                </mxCell>
                <mxCell id="j_qc3P-5auPdPMbNX9wX-44" value="" style="endArrow=classic;html=1;rounded=0;entryX=0;entryY=0.5;entryDx=0;entryDy=0;" parent="1" target="j_qc3P-5auPdPMbNX9wX-39" edge="1">
                    <mxGeometry width="50" height="50" relative="1" as="geometry">
                        <mxPoint x="840" y="730" as="sourcePoint"/>
                        <mxPoint x="1020" y="670" as="targetPoint"/>
                        <Array as="points">
                            <mxPoint x="840" y="790"/>
                        </Array>
                    </mxGeometry>
                </mxCell>
                <mxCell id="j_qc3P-5auPdPMbNX9wX-49" value="" style="edgeStyle=orthogonalEdgeStyle;rounded=0;orthogonalLoop=1;jettySize=auto;html=1;" parent="1" source="j_qc3P-5auPdPMbNX9wX-45" target="RfPPVsYAJoz4dsqOc-ON-12" edge="1">
                    <mxGeometry relative="1" as="geometry"/>
                </mxCell>
                <mxCell id="48" style="edgeStyle=none;html=1;exitX=0.75;exitY=0;exitDx=0;exitDy=0;entryX=0.938;entryY=0.625;entryDx=0;entryDy=0;entryPerimeter=0;" edge="1" parent="1" source="j_qc3P-5auPdPMbNX9wX-45" target="eisTL26Y4feQtT8YzyBo-77">
                    <mxGeometry relative="1" as="geometry">
                        <Array as="points">
                            <mxPoint x="1430" y="-50"/>
                            <mxPoint x="1410" y="-50"/>
                        </Array>
                    </mxGeometry>
                </mxCell>
                <mxCell id="49" value="&lt;font style=&quot;font-size: 14px&quot;&gt;Exeption flag&lt;/font&gt;" style="edgeLabel;html=1;align=center;verticalAlign=middle;resizable=0;points=[];rotation=90;" vertex="1" connectable="0" parent="48">
                    <mxGeometry x="-0.821" y="-4" relative="1" as="geometry">
                        <mxPoint y="22" as="offset"/>
                    </mxGeometry>
                </mxCell>
                <mxCell id="j_qc3P-5auPdPMbNX9wX-45" value="&lt;font color=&quot;#000000&quot;&gt;Memory&lt;/font&gt;" style="whiteSpace=wrap;html=1;aspect=fixed;fillColor=#ffe6cc;strokeColor=#d79b00;" parent="1" vertex="1">
                    <mxGeometry x="1340" y="460" width="120" height="120" as="geometry"/>
                </mxCell>
                <mxCell id="j_qc3P-5auPdPMbNX9wX-56" value="" style="edgeStyle=orthogonalEdgeStyle;rounded=0;orthogonalLoop=1;jettySize=auto;html=1;" parent="1" source="j_qc3P-5auPdPMbNX9wX-53" target="j_qc3P-5auPdPMbNX9wX-55" edge="1">
                    <mxGeometry relative="1" as="geometry"/>
                </mxCell>
                <mxCell id="j_qc3P-5auPdPMbNX9wX-53" value="&lt;font color=&quot;#000000&quot;&gt;WR&lt;/font&gt;" style="whiteSpace=wrap;html=1;aspect=fixed;fillColor=#d5e8d4;strokeColor=#82b366;" parent="1" vertex="1">
                    <mxGeometry x="1200" y="220" width="60" height="60" as="geometry"/>
                </mxCell>
                <mxCell id="j_qc3P-5auPdPMbNX9wX-55" value="&lt;font color=&quot;#000000&quot;&gt;WR&lt;/font&gt;" style="whiteSpace=wrap;html=1;aspect=fixed;fillColor=#d5e8d4;strokeColor=#82b366;" parent="1" vertex="1">
                    <mxGeometry x="1500" y="220" width="60" height="60" as="geometry"/>
                </mxCell>
                <mxCell id="eisTL26Y4feQtT8YzyBo-124" style="edgeStyle=orthogonalEdgeStyle;rounded=0;orthogonalLoop=1;jettySize=auto;html=1;exitX=1;exitY=0.5;exitDx=0;exitDy=0;endArrow=classic;endFill=1;" parent="1" source="j_qc3P-5auPdPMbNX9wX-57" edge="1">
                    <mxGeometry relative="1" as="geometry">
                        <mxPoint x="1391" y="457" as="targetPoint"/>
                    </mxGeometry>
                </mxCell>
                <mxCell id="45" value="&lt;font style=&quot;font-size: 14px&quot;&gt;Mem_write&lt;/font&gt;" style="edgeLabel;html=1;align=center;verticalAlign=middle;resizable=0;points=[];rotation=90;" vertex="1" connectable="0" parent="eisTL26Y4feQtT8YzyBo-124">
                    <mxGeometry x="0.3025" y="-1" relative="1" as="geometry">
                        <mxPoint as="offset"/>
                    </mxGeometry>
                </mxCell>
                <mxCell id="eisTL26Y4feQtT8YzyBo-125" style="edgeStyle=orthogonalEdgeStyle;rounded=0;orthogonalLoop=1;jettySize=auto;html=1;exitX=1;exitY=0.75;exitDx=0;exitDy=0;endArrow=classic;endFill=1;entryX=0.25;entryY=0;entryDx=0;entryDy=0;" parent="1" source="j_qc3P-5auPdPMbNX9wX-57" target="j_qc3P-5auPdPMbNX9wX-45" edge="1">
                    <mxGeometry relative="1" as="geometry">
                        <mxPoint x="1330" y="460" as="targetPoint"/>
                        <Array as="points">
                            <mxPoint x="1370" y="325"/>
                        </Array>
                    </mxGeometry>
                </mxCell>
                <mxCell id="44" value="&lt;font style=&quot;font-size: 14px&quot;&gt;Mem_Read&lt;/font&gt;" style="edgeLabel;html=1;align=center;verticalAlign=middle;resizable=0;points=[];rotation=90;" vertex="1" connectable="0" parent="eisTL26Y4feQtT8YzyBo-125">
                    <mxGeometry x="0.1024" y="1" relative="1" as="geometry">
                        <mxPoint y="25" as="offset"/>
                    </mxGeometry>
                </mxCell>
                <mxCell id="82" style="edgeStyle=none;html=1;exitX=1;exitY=0.25;exitDx=0;exitDy=0;entryX=0;entryY=0.25;entryDx=0;entryDy=0;" edge="1" parent="1" source="j_qc3P-5auPdPMbNX9wX-57" target="81">
                    <mxGeometry relative="1" as="geometry"/>
                </mxCell>
                <mxCell id="j_qc3P-5auPdPMbNX9wX-57" value="&lt;font color=&quot;#000000&quot;&gt;M&lt;/font&gt;" style="whiteSpace=wrap;html=1;aspect=fixed;fillColor=#d5e8d4;strokeColor=#82b366;" parent="1" vertex="1">
                    <mxGeometry x="1200" y="280" width="60" height="60" as="geometry"/>
                </mxCell>
                <mxCell id="j_qc3P-5auPdPMbNX9wX-59" value="" style="endArrow=classic;html=1;rounded=0;" parent="1" edge="1">
                    <mxGeometry width="50" height="50" relative="1" as="geometry">
                        <mxPoint x="1280" y="250" as="sourcePoint"/>
                        <mxPoint x="1120" y="729" as="targetPoint"/>
                        <Array as="points">
                            <mxPoint x="1280" y="729"/>
                        </Array>
                    </mxGeometry>
                </mxCell>
                <mxCell id="j_qc3P-5auPdPMbNX9wX-62" value="" style="endArrow=classic;html=1;rounded=0;entryX=1;entryY=0.5;entryDx=0;entryDy=0;" parent="1" target="j_qc3P-5auPdPMbNX9wX-28" edge="1">
                    <mxGeometry width="50" height="50" relative="1" as="geometry">
                        <mxPoint x="1270" y="690" as="sourcePoint"/>
                        <mxPoint x="1240" y="570" as="targetPoint"/>
                        <Array as="points">
                            <mxPoint x="1270" y="715"/>
                        </Array>
                    </mxGeometry>
                </mxCell>
                <mxCell id="j_qc3P-5auPdPMbNX9wX-63" value="" style="endArrow=classic;html=1;rounded=0;exitX=1.067;exitY=0.953;exitDx=0;exitDy=0;exitPerimeter=0;" parent="1" source="RfPPVsYAJoz4dsqOc-ON-12" edge="1">
                    <mxGeometry width="50" height="50" relative="1" as="geometry">
                        <mxPoint x="1270" y="590" as="sourcePoint"/>
                        <mxPoint x="1110" y="739" as="targetPoint"/>
                        <Array as="points">
                            <mxPoint x="1580" y="683"/>
                            <mxPoint x="1580" y="739"/>
                        </Array>
                    </mxGeometry>
                </mxCell>
                <mxCell id="j_qc3P-5auPdPMbNX9wX-64" value="" style="endArrow=classic;html=1;rounded=0;exitX=1;exitY=0.5;exitDx=0;exitDy=0;" parent="1" source="j_qc3P-5auPdPMbNX9wX-55" edge="1">
                    <mxGeometry width="50" height="50" relative="1" as="geometry">
                        <mxPoint x="1280" y="620" as="sourcePoint"/>
                        <mxPoint x="1090" y="751" as="targetPoint"/>
                        <Array as="points">
                            <mxPoint x="1610" y="250"/>
                            <mxPoint x="1610" y="310"/>
                            <mxPoint x="1610" y="751"/>
                        </Array>
                    </mxGeometry>
                </mxCell>
                <mxCell id="j_qc3P-5auPdPMbNX9wX-66" value="" style="endArrow=classic;html=1;rounded=0;entryX=0.008;entryY=0.608;entryDx=0;entryDy=0;entryPerimeter=0;" parent="1" target="RfPPVsYAJoz4dsqOc-ON-13" edge="1">
                    <mxGeometry width="50" height="50" relative="1" as="geometry">
                        <mxPoint x="1340" y="740" as="sourcePoint"/>
                        <mxPoint x="720" y="540" as="targetPoint"/>
                        <Array as="points">
                            <mxPoint x="1340" y="910"/>
                            <mxPoint x="710" y="910"/>
                            <mxPoint x="710" y="533"/>
                        </Array>
                    </mxGeometry>
                </mxCell>
                <mxCell id="j_qc3P-5auPdPMbNX9wX-67" value="&lt;div&gt;&lt;font color=&quot;#000000&quot;&gt;M&lt;/font&gt;&lt;/div&gt;&lt;div&gt;&lt;font color=&quot;#000000&quot;&gt;U&lt;/font&gt;&lt;/div&gt;&lt;div&gt;&lt;font color=&quot;#000000&quot;&gt;X&lt;/font&gt;&lt;/div&gt;" style="ellipse;whiteSpace=wrap;html=1;fillColor=#e1d5e7;strokeColor=#9673a6;" parent="1" vertex="1">
                    <mxGeometry x="1635" y="485" width="30" height="70" as="geometry"/>
                </mxCell>
                <mxCell id="eisTL26Y4feQtT8YzyBo-158" value="" style="edgeStyle=orthogonalEdgeStyle;rounded=0;orthogonalLoop=1;jettySize=auto;html=1;endArrow=classic;endFill=1;" parent="1" source="eisTL26Y4feQtT8YzyBo-1" target="RfPPVsYAJoz4dsqOc-ON-4" edge="1">
                    <mxGeometry relative="1" as="geometry"/>
                </mxCell>
                <mxCell id="eisTL26Y4feQtT8YzyBo-162" style="edgeStyle=orthogonalEdgeStyle;rounded=0;orthogonalLoop=1;jettySize=auto;html=1;exitX=0.5;exitY=1;exitDx=0;exitDy=0;endArrow=classic;endFill=1;entryX=0;entryY=1;entryDx=0;entryDy=0;" parent="1" target="eisTL26Y4feQtT8YzyBo-1" edge="1" source="j_qc3P-5auPdPMbNX9wX-4">
                    <mxGeometry relative="1" as="geometry">
                        <mxPoint x="870" y="490" as="sourcePoint"/>
                        <Array as="points">
                            <mxPoint x="880" y="960"/>
                            <mxPoint x="230" y="960"/>
                            <mxPoint x="230" y="540"/>
                        </Array>
                    </mxGeometry>
                </mxCell>
                <mxCell id="36" value="&lt;font style=&quot;font-size: 14px&quot;&gt;Jmp PC&lt;/font&gt;" style="edgeLabel;html=1;align=center;verticalAlign=middle;resizable=0;points=[];rotation=90;" vertex="1" connectable="0" parent="eisTL26Y4feQtT8YzyBo-162">
                    <mxGeometry x="-0.9569" y="2" relative="1" as="geometry">
                        <mxPoint x="-2" y="202" as="offset"/>
                    </mxGeometry>
                </mxCell>
                <mxCell id="eisTL26Y4feQtT8YzyBo-1" value="&lt;div&gt;&lt;font color=&quot;#000000&quot;&gt;M&lt;/font&gt;&lt;/div&gt;&lt;div&gt;&lt;font color=&quot;#000000&quot;&gt;U&lt;/font&gt;&lt;/div&gt;&lt;div&gt;&lt;font color=&quot;#000000&quot;&gt;X&lt;/font&gt;&lt;/div&gt;" style="ellipse;whiteSpace=wrap;html=1;fillColor=#e1d5e7;strokeColor=#9673a6;" parent="1" vertex="1">
                    <mxGeometry x="300" y="480" width="30" height="70" as="geometry"/>
                </mxCell>
                <mxCell id="eisTL26Y4feQtT8YzyBo-30" style="edgeStyle=orthogonalEdgeStyle;rounded=0;orthogonalLoop=1;jettySize=auto;html=1;exitX=0.75;exitY=1;exitDx=0;exitDy=0;endArrow=classic;endFill=1;entryX=0.75;entryY=1;entryDx=0;entryDy=0;" parent="1" target="eisTL26Y4feQtT8YzyBo-28" edge="1">
                    <mxGeometry relative="1" as="geometry">
                        <mxPoint x="460" y="520" as="sourcePoint"/>
                        <Array as="points">
                            <mxPoint x="460" y="408"/>
                        </Array>
                    </mxGeometry>
                </mxCell>
                <mxCell id="eisTL26Y4feQtT8YzyBo-28" value="adder" style="shape=trapezoid;perimeter=trapezoidPerimeter;whiteSpace=wrap;html=1;fixedSize=1;direction=south;" parent="1" vertex="1">
                    <mxGeometry x="520" y="355" width="40" height="70" as="geometry"/>
                </mxCell>
                <mxCell id="eisTL26Y4feQtT8YzyBo-35" style="edgeStyle=orthogonalEdgeStyle;rounded=0;orthogonalLoop=1;jettySize=auto;html=1;endArrow=classic;endFill=1;entryX=0;entryY=0;entryDx=0;entryDy=0;exitX=0.5;exitY=0;exitDx=0;exitDy=0;" parent="1" source="eisTL26Y4feQtT8YzyBo-28" target="eisTL26Y4feQtT8YzyBo-1" edge="1">
                    <mxGeometry relative="1" as="geometry">
                        <mxPoint x="240" y="500" as="targetPoint"/>
                        <Array as="points">
                            <mxPoint x="580" y="390"/>
                            <mxPoint x="580" y="280"/>
                            <mxPoint x="290" y="280"/>
                            <mxPoint x="290" y="490"/>
                        </Array>
                    </mxGeometry>
                </mxCell>
                <mxCell id="11" value="&lt;font style=&quot;font-size: 14px&quot;&gt;PC ++&lt;/font&gt;" style="edgeLabel;html=1;align=center;verticalAlign=middle;resizable=0;points=[];" vertex="1" connectable="0" parent="eisTL26Y4feQtT8YzyBo-35">
                    <mxGeometry x="-0.544" y="2" relative="1" as="geometry">
                        <mxPoint as="offset"/>
                    </mxGeometry>
                </mxCell>
                <mxCell id="eisTL26Y4feQtT8YzyBo-69" value="Ex.1" style="text;html=1;resizable=0;autosize=1;align=center;verticalAlign=middle;points=[];fillColor=none;strokeColor=none;rounded=0;" parent="1" vertex="1">
                    <mxGeometry x="120" y="480" width="40" height="20" as="geometry"/>
                </mxCell>
                <mxCell id="eisTL26Y4feQtT8YzyBo-73" value="Ex.2" style="text;html=1;resizable=0;autosize=1;align=center;verticalAlign=middle;points=[];fillColor=none;strokeColor=none;rounded=0;" parent="1" vertex="1">
                    <mxGeometry x="120" y="510" width="40" height="20" as="geometry"/>
                </mxCell>
                <mxCell id="eisTL26Y4feQtT8YzyBo-98" style="edgeStyle=orthogonalEdgeStyle;rounded=0;orthogonalLoop=1;jettySize=auto;html=1;exitX=1;exitY=0.5;exitDx=0;exitDy=0;endArrow=classic;endFill=1;entryX=0;entryY=0.5;entryDx=0;entryDy=0;" parent="1" source="eisTL26Y4feQtT8YzyBo-77" target="j_qc3P-5auPdPMbNX9wX-14" edge="1">
                    <mxGeometry relative="1" as="geometry">
                        <mxPoint x="791.3800000000001" y="220.3699999999999" as="targetPoint"/>
                        <Array as="points">
                            <mxPoint x="840" y="-60"/>
                            <mxPoint x="840" y="310"/>
                        </Array>
                    </mxGeometry>
                </mxCell>
                <mxCell id="eisTL26Y4feQtT8YzyBo-100" style="edgeStyle=orthogonalEdgeStyle;rounded=0;orthogonalLoop=1;jettySize=auto;html=1;exitX=0;exitY=0.5;exitDx=0;exitDy=0;entryX=0.25;entryY=0;entryDx=0;entryDy=0;endArrow=classic;endFill=1;" parent="1" source="eisTL26Y4feQtT8YzyBo-77" target="RfPPVsYAJoz4dsqOc-ON-8" edge="1">
                    <mxGeometry relative="1" as="geometry"/>
                </mxCell>
                <mxCell id="eisTL26Y4feQtT8YzyBo-147" style="edgeStyle=orthogonalEdgeStyle;rounded=0;orthogonalLoop=1;jettySize=auto;html=1;exitX=0.5;exitY=0;exitDx=0;exitDy=0;entryX=0.5;entryY=0;entryDx=0;entryDy=0;endArrow=classic;endFill=1;" parent="1" source="eisTL26Y4feQtT8YzyBo-77" target="eisTL26Y4feQtT8YzyBo-1" edge="1">
                    <mxGeometry relative="1" as="geometry">
                        <Array as="points">
                            <mxPoint x="315" y="-100"/>
                        </Array>
                    </mxGeometry>
                </mxCell>
                <mxCell id="12" value="&lt;font style=&quot;font-size: 14px&quot;&gt;PC selector 2bits&lt;/font&gt;" style="edgeLabel;html=1;align=center;verticalAlign=middle;resizable=0;points=[];rotation=90;" vertex="1" connectable="0" parent="eisTL26Y4feQtT8YzyBo-147">
                    <mxGeometry x="0.3196" y="-2" relative="1" as="geometry">
                        <mxPoint x="2" y="-10" as="offset"/>
                    </mxGeometry>
                </mxCell>
                <mxCell id="26" style="edgeStyle=none;html=1;exitX=0;exitY=0;exitDx=0;exitDy=0;entryX=0.25;entryY=1;entryDx=0;entryDy=0;" edge="1" parent="1" source="eisTL26Y4feQtT8YzyBo-77" target="eisTL26Y4feQtT8YzyBo-28">
                    <mxGeometry relative="1" as="geometry">
                        <Array as="points">
                            <mxPoint x="460" y="-88"/>
                            <mxPoint x="460" y="373"/>
                        </Array>
                    </mxGeometry>
                </mxCell>
                <mxCell id="27" value="&lt;font style=&quot;font-size: 14px&quot;&gt;PC step&lt;/font&gt;" style="edgeLabel;html=1;align=center;verticalAlign=middle;resizable=0;points=[];rotation=90;" vertex="1" connectable="0" parent="26">
                    <mxGeometry x="0.2825" y="1" relative="1" as="geometry">
                        <mxPoint as="offset"/>
                    </mxGeometry>
                </mxCell>
                <mxCell id="46" style="edgeStyle=none;html=1;exitX=1;exitY=1;exitDx=0;exitDy=0;entryX=0.25;entryY=0;entryDx=0;entryDy=0;" edge="1" parent="1" source="eisTL26Y4feQtT8YzyBo-77" target="RfPPVsYAJoz4dsqOc-ON-13">
                    <mxGeometry relative="1" as="geometry"/>
                </mxCell>
                <mxCell id="47" value="&lt;font style=&quot;font-size: 14px&quot;&gt;Write signal&lt;/font&gt;" style="edgeLabel;html=1;align=center;verticalAlign=middle;resizable=0;points=[];rotation=90;" vertex="1" connectable="0" parent="46">
                    <mxGeometry x="0.2067" y="5" relative="1" as="geometry">
                        <mxPoint as="offset"/>
                    </mxGeometry>
                </mxCell>
                <mxCell id="63" style="edgeStyle=none;html=1;exitX=1;exitY=1;exitDx=0;exitDy=0;entryX=0.5;entryY=0;entryDx=0;entryDy=0;" edge="1" parent="1" source="eisTL26Y4feQtT8YzyBo-77" target="58">
                    <mxGeometry relative="1" as="geometry">
                        <Array as="points">
                            <mxPoint x="1045" y="-32"/>
                        </Array>
                    </mxGeometry>
                </mxCell>
                <mxCell id="64" value="&lt;span style=&quot;font-size: 14px&quot;&gt;&lt;font color=&quot;#fcfcfc&quot;&gt;in port&amp;nbsp; signal&lt;/font&gt;&lt;/span&gt;" style="edgeLabel;html=1;align=center;verticalAlign=middle;resizable=0;points=[];rotation=90;" vertex="1" connectable="0" parent="63">
                    <mxGeometry x="0.1114" y="3" relative="1" as="geometry">
                        <mxPoint x="-3" y="26" as="offset"/>
                    </mxGeometry>
                </mxCell>
                <mxCell id="eisTL26Y4feQtT8YzyBo-77" value="control unit&amp;nbsp;" style="ellipse;whiteSpace=wrap;html=1;aspect=fixed;" parent="1" vertex="1">
                    <mxGeometry x="705" y="-100" width="80" height="80" as="geometry"/>
                </mxCell>
                <mxCell id="eisTL26Y4feQtT8YzyBo-94" style="edgeStyle=orthogonalEdgeStyle;rounded=0;orthogonalLoop=1;jettySize=auto;html=1;exitX=0;exitY=0.5;exitDx=0;exitDy=0;entryX=0.5;entryY=0;entryDx=0;entryDy=0;endArrow=classic;endFill=1;" parent="1" source="eisTL26Y4feQtT8YzyBo-78" target="RfPPVsYAJoz4dsqOc-ON-8" edge="1">
                    <mxGeometry relative="1" as="geometry">
                        <mxPoint x="670" y="280" as="targetPoint"/>
                    </mxGeometry>
                </mxCell>
                <mxCell id="eisTL26Y4feQtT8YzyBo-105" style="edgeStyle=orthogonalEdgeStyle;rounded=0;orthogonalLoop=1;jettySize=auto;html=1;exitX=1;exitY=0.75;exitDx=0;exitDy=0;entryX=1;entryY=0;entryDx=0;entryDy=0;endArrow=classic;endFill=1;" parent="1" source="eisTL26Y4feQtT8YzyBo-78" target="eisTL26Y4feQtT8YzyBo-77" edge="1">
                    <mxGeometry relative="1" as="geometry"/>
                </mxCell>
                <mxCell id="21" value="&lt;font style=&quot;font-size: 14px&quot;&gt;To D.Flush&lt;br&gt;&lt;/font&gt;" style="edgeLabel;html=1;align=center;verticalAlign=middle;resizable=0;points=[];rotation=90;" vertex="1" connectable="0" parent="eisTL26Y4feQtT8YzyBo-105">
                    <mxGeometry x="0.1594" y="-1" relative="1" as="geometry">
                        <mxPoint x="11" y="-17" as="offset"/>
                    </mxGeometry>
                </mxCell>
                <mxCell id="eisTL26Y4feQtT8YzyBo-109" style="edgeStyle=orthogonalEdgeStyle;rounded=0;orthogonalLoop=1;jettySize=auto;html=1;exitX=1;exitY=0.5;exitDx=0;exitDy=0;endArrow=classic;endFill=1;entryX=1;entryY=0.5;entryDx=0;entryDy=0;" parent="1" target="eisTL26Y4feQtT8YzyBo-78" edge="1" source="j_qc3P-5auPdPMbNX9wX-16">
                    <mxGeometry relative="1" as="geometry">
                        <mxPoint x="970" y="240" as="sourcePoint"/>
                        <Array as="points">
                            <mxPoint x="970" y="250"/>
                            <mxPoint x="970" y="-165"/>
                        </Array>
                    </mxGeometry>
                </mxCell>
                <mxCell id="eisTL26Y4feQtT8YzyBo-143" style="edgeStyle=orthogonalEdgeStyle;rounded=0;orthogonalLoop=1;jettySize=auto;html=1;endArrow=classic;endFill=1;" parent="1" edge="1">
                    <mxGeometry relative="1" as="geometry">
                        <mxPoint x="680" y="500" as="sourcePoint"/>
                        <Array as="points">
                            <mxPoint x="680" y="-230"/>
                            <mxPoint x="710" y="-230"/>
                        </Array>
                        <mxPoint x="710" y="-210" as="targetPoint"/>
                    </mxGeometry>
                </mxCell>
                <mxCell id="67" style="edgeStyle=none;html=1;exitX=0.75;exitY=1;exitDx=0;exitDy=0;entryX=0.5;entryY=0;entryDx=0;entryDy=0;" edge="1" parent="1" source="eisTL26Y4feQtT8YzyBo-78" target="eisTL26Y4feQtT8YzyBo-77">
                    <mxGeometry relative="1" as="geometry"/>
                </mxCell>
                <mxCell id="eisTL26Y4feQtT8YzyBo-78" value="hazard detection&amp;nbsp;" style="whiteSpace=wrap;html=1;aspect=fixed;" parent="1" vertex="1">
                    <mxGeometry x="690" y="-210" width="80" height="80" as="geometry"/>
                </mxCell>
                <mxCell id="eisTL26Y4feQtT8YzyBo-47" style="edgeStyle=orthogonalEdgeStyle;rounded=0;orthogonalLoop=1;jettySize=auto;html=1;exitX=1;exitY=0.25;exitDx=0;exitDy=0;endArrow=classic;endFill=1;entryX=0;entryY=0.5;entryDx=0;entryDy=0;" parent="1" source="j_qc3P-5auPdPMbNX9wX-16" target="j_qc3P-5auPdPMbNX9wX-57" edge="1">
                    <mxGeometry relative="1" as="geometry">
                        <mxPoint x="1088.62" y="190.93000000000006" as="targetPoint"/>
                        <Array as="points">
                            <mxPoint x="1140" y="235"/>
                            <mxPoint x="1140" y="310"/>
                        </Array>
                    </mxGeometry>
                </mxCell>
                <mxCell id="eisTL26Y4feQtT8YzyBo-87" style="edgeStyle=orthogonalEdgeStyle;rounded=0;orthogonalLoop=1;jettySize=auto;html=1;entryX=0;entryY=0.5;entryDx=0;entryDy=0;endArrow=classic;endFill=1;" parent="1" target="j_qc3P-5auPdPMbNX9wX-15" edge="1">
                    <mxGeometry relative="1" as="geometry">
                        <mxPoint x="840" y="220" as="sourcePoint"/>
                        <Array as="points">
                            <mxPoint x="840" y="220"/>
                            <mxPoint x="840" y="190"/>
                        </Array>
                    </mxGeometry>
                </mxCell>
                <mxCell id="eisTL26Y4feQtT8YzyBo-88" style="edgeStyle=orthogonalEdgeStyle;rounded=0;orthogonalLoop=1;jettySize=auto;html=1;entryX=0;entryY=0.5;entryDx=0;entryDy=0;endArrow=classic;endFill=1;" parent="1" target="j_qc3P-5auPdPMbNX9wX-16" edge="1">
                    <mxGeometry relative="1" as="geometry">
                        <mxPoint x="840" y="220" as="sourcePoint"/>
                        <Array as="points">
                            <mxPoint x="840" y="220"/>
                            <mxPoint x="840" y="250"/>
                        </Array>
                    </mxGeometry>
                </mxCell>
                <mxCell id="eisTL26Y4feQtT8YzyBo-95" value="F.Flush" style="text;html=1;resizable=0;autosize=1;align=center;verticalAlign=middle;points=[];fillColor=none;strokeColor=none;rounded=0;" parent="1" vertex="1">
                    <mxGeometry x="620" y="-190" width="50" height="20" as="geometry"/>
                </mxCell>
                <mxCell id="eisTL26Y4feQtT8YzyBo-101" value="&lt;font style=&quot;font-size: 14px&quot;&gt;immediate value signal&lt;/font&gt;" style="text;html=1;resizable=0;autosize=1;align=center;verticalAlign=middle;points=[];fillColor=none;strokeColor=none;rounded=0;rotation=90;" parent="1" vertex="1">
                    <mxGeometry x="530" y="70" width="160" height="20" as="geometry"/>
                </mxCell>
                <mxCell id="eisTL26Y4feQtT8YzyBo-111" value="" style="endArrow=none;html=1;rounded=0;" parent="1" edge="1">
                    <mxGeometry width="50" height="50" relative="1" as="geometry">
                        <mxPoint x="500" y="660" as="sourcePoint"/>
                        <mxPoint x="500" y="660" as="targetPoint"/>
                    </mxGeometry>
                </mxCell>
                <mxCell id="eisTL26Y4feQtT8YzyBo-114" value="R_dest" style="text;html=1;resizable=0;autosize=1;align=center;verticalAlign=middle;points=[];fillColor=none;strokeColor=none;rounded=0;" parent="1" vertex="1">
                    <mxGeometry x="690" y="510" width="50" height="20" as="geometry"/>
                </mxCell>
                <mxCell id="eisTL26Y4feQtT8YzyBo-133" value="R_dest" style="text;html=1;resizable=0;autosize=1;align=center;verticalAlign=middle;points=[];fillColor=none;strokeColor=none;rounded=0;" parent="1" vertex="1">
                    <mxGeometry x="1315" y="670" width="50" height="20" as="geometry"/>
                </mxCell>
                <mxCell id="eisTL26Y4feQtT8YzyBo-134" value="R_dest" style="text;html=1;resizable=0;autosize=1;align=center;verticalAlign=middle;points=[];fillColor=none;strokeColor=none;rounded=0;" parent="1" vertex="1">
                    <mxGeometry x="1530" y="720" width="50" height="20" as="geometry"/>
                </mxCell>
                <mxCell id="eisTL26Y4feQtT8YzyBo-140" value="" style="endArrow=classic;html=1;rounded=0;entryX=0;entryY=1;entryDx=0;entryDy=0;" parent="1" target="eisTL26Y4feQtT8YzyBo-78" edge="1">
                    <mxGeometry width="50" height="50" relative="1" as="geometry">
                        <mxPoint x="688.57" y="480" as="sourcePoint"/>
                        <mxPoint x="688.57" y="400" as="targetPoint"/>
                        <Array as="points">
                            <mxPoint x="688.57" y="450"/>
                            <mxPoint x="690" y="400"/>
                        </Array>
                    </mxGeometry>
                </mxCell>
                <mxCell id="eisTL26Y4feQtT8YzyBo-159" style="edgeStyle=orthogonalEdgeStyle;rounded=0;orthogonalLoop=1;jettySize=auto;html=1;exitX=1;exitY=0.5;exitDx=0;exitDy=0;endArrow=classic;endFill=1;entryX=1;entryY=0.25;entryDx=0;entryDy=0;" parent="1" source="eisTL26Y4feQtT8YzyBo-144" target="eisTL26Y4feQtT8YzyBo-78" edge="1">
                    <mxGeometry relative="1" as="geometry">
                        <mxPoint x="980" y="-193.80946568080358" as="targetPoint"/>
                        <Array as="points">
                            <mxPoint x="1730" y="850"/>
                            <mxPoint x="1730" y="-187"/>
                        </Array>
                    </mxGeometry>
                </mxCell>
                <mxCell id="eisTL26Y4feQtT8YzyBo-144" value="&lt;font color=&quot;#000000&quot;&gt;R_dest&lt;br&gt;&lt;/font&gt;&lt;span style=&quot;color: rgb(0 , 0 , 0)&quot;&gt;address&lt;/span&gt;&lt;font color=&quot;#000000&quot;&gt;&lt;br&gt;&lt;/font&gt;" style="whiteSpace=wrap;html=1;aspect=fixed;fillColor=#d5e8d4;strokeColor=#82b366;" parent="1" vertex="1">
                    <mxGeometry x="900" y="820" width="60" height="60" as="geometry"/>
                </mxCell>
                <mxCell id="eisTL26Y4feQtT8YzyBo-148" value="" style="endArrow=classic;html=1;rounded=0;" parent="1" edge="1">
                    <mxGeometry width="50" height="50" relative="1" as="geometry">
                        <mxPoint x="140" y="499.9999999999999" as="sourcePoint"/>
                        <mxPoint x="180" y="499.9999999999999" as="targetPoint"/>
                        <Array as="points">
                            <mxPoint x="160" y="500.42999999999995"/>
                        </Array>
                    </mxGeometry>
                </mxCell>
                <mxCell id="eisTL26Y4feQtT8YzyBo-149" value="" style="endArrow=classic;html=1;rounded=0;" parent="1" edge="1">
                    <mxGeometry width="50" height="50" relative="1" as="geometry">
                        <mxPoint x="140" y="530" as="sourcePoint"/>
                        <mxPoint x="180" y="530" as="targetPoint"/>
                        <Array as="points">
                            <mxPoint x="160" y="530"/>
                        </Array>
                    </mxGeometry>
                </mxCell>
                <mxCell id="3" value="&lt;div&gt;&lt;font color=&quot;#000000&quot;&gt;M&lt;/font&gt;&lt;/div&gt;&lt;div&gt;&lt;font color=&quot;#000000&quot;&gt;U&lt;/font&gt;&lt;/div&gt;&lt;div&gt;&lt;font color=&quot;#000000&quot;&gt;X&lt;/font&gt;&lt;/div&gt;" style="ellipse;whiteSpace=wrap;html=1;fillColor=#e1d5e7;strokeColor=#9673a6;" vertex="1" parent="1">
                    <mxGeometry x="180" y="480" width="30" height="70" as="geometry"/>
                </mxCell>
                <mxCell id="4" value="" style="endArrow=classic;html=1;entryX=0.5;entryY=0;entryDx=0;entryDy=0;exitX=0.013;exitY=0.738;exitDx=0;exitDy=0;exitPerimeter=0;" edge="1" parent="1" source="eisTL26Y4feQtT8YzyBo-77" target="3">
                    <mxGeometry width="50" height="50" relative="1" as="geometry">
                        <mxPoint x="360" y="450" as="sourcePoint"/>
                        <mxPoint x="410" y="400" as="targetPoint"/>
                        <Array as="points">
                            <mxPoint x="190" y="-41"/>
                        </Array>
                    </mxGeometry>
                </mxCell>
                <mxCell id="6" value="&lt;font style=&quot;font-size: 14px&quot;&gt;select exeption signal&lt;/font&gt;" style="edgeLabel;html=1;align=center;verticalAlign=middle;resizable=0;points=[];rotation=90;" vertex="1" connectable="0" parent="4">
                    <mxGeometry x="0.2498" relative="1" as="geometry">
                        <mxPoint x="4" y="44" as="offset"/>
                    </mxGeometry>
                </mxCell>
                <mxCell id="5" value="" style="endArrow=classic;html=1;exitX=1.1;exitY=0.4;exitDx=0;exitDy=0;entryX=0.033;entryY=0.4;entryDx=0;entryDy=0;entryPerimeter=0;exitPerimeter=0;" edge="1" parent="1" source="3" target="eisTL26Y4feQtT8YzyBo-1">
                    <mxGeometry width="50" height="50" relative="1" as="geometry">
                        <mxPoint x="290" y="470" as="sourcePoint"/>
                        <mxPoint x="340" y="420" as="targetPoint"/>
                    </mxGeometry>
                </mxCell>
                <mxCell id="8" value="" style="endArrow=classic;html=1;entryX=-0.067;entryY=0.657;entryDx=0;entryDy=0;entryPerimeter=0;exitX=0.5;exitY=1;exitDx=0;exitDy=0;" edge="1" parent="1" source="9" target="eisTL26Y4feQtT8YzyBo-1">
                    <mxGeometry width="50" height="50" relative="1" as="geometry">
                        <mxPoint x="1472" y="970" as="sourcePoint"/>
                        <mxPoint x="250" y="470" as="targetPoint"/>
                        <Array as="points">
                            <mxPoint x="1400" y="1000"/>
                            <mxPoint x="1380" y="1000"/>
                            <mxPoint x="220" y="1000"/>
                            <mxPoint x="220" y="526"/>
                        </Array>
                    </mxGeometry>
                </mxCell>
                <mxCell id="10" value="&lt;font style=&quot;font-size: 14px&quot;&gt;Stack data&lt;/font&gt;" style="edgeLabel;html=1;align=center;verticalAlign=middle;resizable=0;points=[];" vertex="1" connectable="0" parent="8">
                    <mxGeometry x="-0.6928" y="4" relative="1" as="geometry">
                        <mxPoint as="offset"/>
                    </mxGeometry>
                </mxCell>
                <mxCell id="9" value="&lt;font color=&quot;#000000&quot;&gt;Stack&lt;/font&gt;" style="rounded=0;whiteSpace=wrap;html=1;fillColor=#FFE6CC;" vertex="1" parent="1">
                    <mxGeometry x="1340" y="580" width="120" height="60" as="geometry"/>
                </mxCell>
                <mxCell id="33" style="edgeStyle=none;html=1;exitX=0;exitY=0.5;exitDx=0;exitDy=0;entryX=1;entryY=0.5;entryDx=0;entryDy=0;" edge="1" parent="1" source="29" target="j_qc3P-5auPdPMbNX9wX-4">
                    <mxGeometry relative="1" as="geometry">
                        <Array as="points">
                            <mxPoint x="890" y="403"/>
                        </Array>
                    </mxGeometry>
                </mxCell>
                <mxCell id="29" value="&lt;font color=&quot;#000000&quot;&gt;Flages&lt;/font&gt;" style="rounded=0;whiteSpace=wrap;html=1;fillColor=#FFE6CC;" vertex="1" parent="1">
                    <mxGeometry x="1130" y="390" width="60" height="25" as="geometry"/>
                </mxCell>
                <mxCell id="65" style="edgeStyle=none;html=1;exitX=1;exitY=0.5;exitDx=0;exitDy=0;entryX=0;entryY=0;entryDx=0;entryDy=0;" edge="1" parent="1" source="58" target="j_qc3P-5auPdPMbNX9wX-19">
                    <mxGeometry relative="1" as="geometry">
                        <Array as="points">
                            <mxPoint x="1090" y="375"/>
                            <mxPoint x="1090" y="430"/>
                            <mxPoint x="1000" y="430"/>
                            <mxPoint x="1000" y="450"/>
                        </Array>
                    </mxGeometry>
                </mxCell>
                <mxCell id="58" value="&lt;div&gt;&lt;font color=&quot;#000000&quot;&gt;M&lt;/font&gt;&lt;/div&gt;&lt;div&gt;&lt;font color=&quot;#000000&quot;&gt;U&lt;/font&gt;&lt;/div&gt;&lt;div&gt;&lt;font color=&quot;#000000&quot;&gt;X&lt;/font&gt;&lt;/div&gt;" style="ellipse;whiteSpace=wrap;html=1;fillColor=#e1d5e7;strokeColor=#9673a6;" vertex="1" parent="1">
                    <mxGeometry x="1030" y="340" width="30" height="70" as="geometry"/>
                </mxCell>
                <mxCell id="62" style="edgeStyle=none;html=1;exitX=1;exitY=0.5;exitDx=0;exitDy=0;entryX=0;entryY=0;entryDx=0;entryDy=0;" edge="1" parent="1" source="60" target="58">
                    <mxGeometry relative="1" as="geometry">
                        <Array as="points">
                            <mxPoint x="1000" y="370"/>
                            <mxPoint x="1000" y="350"/>
                        </Array>
                    </mxGeometry>
                </mxCell>
                <mxCell id="60" value="&lt;font color=&quot;#000000&quot;&gt;IN Port&lt;/font&gt;" style="whiteSpace=wrap;html=1;aspect=fixed;fillColor=#d5e8d4;strokeColor=#82b366;" vertex="1" parent="1">
                    <mxGeometry x="900" y="340" width="60" height="60" as="geometry"/>
                </mxCell>
                <mxCell id="68" value="&lt;span style=&quot;font-size: 14px&quot;&gt;Pc freeze&lt;br&gt;&lt;/span&gt;" style="text;html=1;align=center;verticalAlign=middle;resizable=0;points=[];autosize=1;strokeColor=none;" vertex="1" parent="1">
                    <mxGeometry x="705" y="-130" width="70" height="20" as="geometry"/>
                </mxCell>
                <mxCell id="69" value="&lt;font color=&quot;#000000&quot;&gt;Instruction&lt;br&gt;16 bits&lt;br&gt;&lt;/font&gt;" style="whiteSpace=wrap;html=1;aspect=fixed;fillColor=#d5e8d4;strokeColor=#82b366;" vertex="1" parent="1">
                    <mxGeometry x="610" y="425" width="60" height="60" as="geometry"/>
                </mxCell>
                <mxCell id="70" value="&lt;font color=&quot;#000000&quot;&gt;imm_signal&lt;br&gt;1 bit&lt;br&gt;&lt;/font&gt;" style="whiteSpace=wrap;html=1;aspect=fixed;fillColor=#d5e8d4;strokeColor=#82b366;" vertex="1" parent="1">
                    <mxGeometry x="610" y="630" width="60" height="60" as="geometry"/>
                </mxCell>
                <mxCell id="71" value="&lt;font color=&quot;#000000&quot;&gt;R_src2&lt;br&gt;16 bits&lt;br&gt;&lt;/font&gt;" style="whiteSpace=wrap;html=1;aspect=fixed;fillColor=#d5e8d4;strokeColor=#82b366;" vertex="1" parent="1">
                    <mxGeometry x="900" y="540" width="60" height="60" as="geometry"/>
                </mxCell>
                <mxCell id="72" value="&lt;font color=&quot;#000000&quot;&gt;R_src1&lt;br&gt;16 bits&lt;br&gt;&lt;/font&gt;" style="whiteSpace=wrap;html=1;aspect=fixed;fillColor=#d5e8d4;strokeColor=#82b366;" vertex="1" parent="1">
                    <mxGeometry x="900" y="400" width="60" height="60" as="geometry"/>
                </mxCell>
                <mxCell id="73" value="&lt;font color=&quot;#000000&quot;&gt;R_dest&lt;br&gt;&lt;/font&gt;&lt;span style=&quot;color: rgb(0 , 0 , 0)&quot;&gt;address&lt;/span&gt;&lt;font color=&quot;#000000&quot;&gt;&lt;br&gt;&lt;/font&gt;" style="whiteSpace=wrap;html=1;aspect=fixed;fillColor=#d5e8d4;strokeColor=#82b366;" vertex="1" parent="1">
                    <mxGeometry x="1200" y="670" width="60" height="60" as="geometry"/>
                </mxCell>
                <mxCell id="74" value="&lt;font color=&quot;#000000&quot;&gt;R_dest&lt;br&gt;&lt;/font&gt;&lt;span style=&quot;color: rgb(0 , 0 , 0)&quot;&gt;address&lt;/span&gt;&lt;font color=&quot;#000000&quot;&gt;&lt;br&gt;&lt;/font&gt;" style="whiteSpace=wrap;html=1;aspect=fixed;fillColor=#d5e8d4;strokeColor=#82b366;" vertex="1" parent="1">
                    <mxGeometry x="1500" y="640" width="60" height="60" as="geometry"/>
                </mxCell>
                <mxCell id="106" style="edgeStyle=none;html=1;exitX=1;exitY=0.5;exitDx=0;exitDy=0;entryX=0;entryY=1;entryDx=0;entryDy=0;" edge="1" parent="1" source="75" target="99">
                    <mxGeometry relative="1" as="geometry"/>
                </mxCell>
                <mxCell id="75" value="&lt;font color=&quot;#000000&quot;&gt;ALU_out&lt;br&gt;&lt;/font&gt;" style="whiteSpace=wrap;html=1;aspect=fixed;fillColor=#d5e8d4;strokeColor=#82b366;" vertex="1" parent="1">
                    <mxGeometry x="1200" y="450" width="60" height="60" as="geometry"/>
                </mxCell>
                <mxCell id="76" value="&lt;font color=&quot;#000000&quot;&gt;R_src1&lt;br&gt;&lt;/font&gt;&lt;font color=&quot;#000000&quot;&gt;16 bit&lt;br&gt;&lt;/font&gt;" style="whiteSpace=wrap;html=1;aspect=fixed;fillColor=#d5e8d4;strokeColor=#82b366;" vertex="1" parent="1">
                    <mxGeometry x="1200" y="550" width="60" height="60" as="geometry"/>
                </mxCell>
                <mxCell id="77" value="&lt;font color=&quot;#000000&quot;&gt;ALU_out&lt;br&gt;&lt;/font&gt;" style="whiteSpace=wrap;html=1;aspect=fixed;fillColor=#d5e8d4;strokeColor=#82b366;" vertex="1" parent="1">
                    <mxGeometry x="1500" y="445" width="60" height="60" as="geometry"/>
                </mxCell>
                <mxCell id="78" value="&lt;font color=&quot;#000000&quot;&gt;MEM_out&lt;br&gt;&lt;/font&gt;" style="whiteSpace=wrap;html=1;aspect=fixed;fillColor=#d5e8d4;strokeColor=#82b366;" vertex="1" parent="1">
                    <mxGeometry x="1500" y="540" width="60" height="60" as="geometry"/>
                </mxCell>
                <mxCell id="93" style="edgeStyle=none;html=1;exitX=0.5;exitY=0;exitDx=0;exitDy=0;entryX=1;entryY=0.5;entryDx=0;entryDy=0;" edge="1" parent="1" source="80" target="86">
                    <mxGeometry relative="1" as="geometry">
                        <Array as="points">
                            <mxPoint x="1230" y="95"/>
                            <mxPoint x="1230" y="33"/>
                        </Array>
                    </mxGeometry>
                </mxCell>
                <mxCell id="112" style="edgeStyle=none;html=1;exitX=0.5;exitY=0;exitDx=0;exitDy=0;entryX=0;entryY=1;entryDx=0;entryDy=0;" edge="1" parent="1" source="80" target="98">
                    <mxGeometry relative="1" as="geometry">
                        <Array as="points">
                            <mxPoint x="1230" y="95"/>
                        </Array>
                    </mxGeometry>
                </mxCell>
                <mxCell id="80" value="adder" style="shape=trapezoid;perimeter=trapezoidPerimeter;whiteSpace=wrap;html=1;fixedSize=1;direction=south;" vertex="1" parent="1">
                    <mxGeometry x="1130" y="60" width="40" height="70" as="geometry"/>
                </mxCell>
                <mxCell id="83" style="edgeStyle=none;html=1;exitX=1;exitY=0.5;exitDx=0;exitDy=0;entryX=0.5;entryY=0;entryDx=0;entryDy=0;" edge="1" parent="1" source="81" target="j_qc3P-5auPdPMbNX9wX-67">
                    <mxGeometry relative="1" as="geometry">
                        <Array as="points">
                            <mxPoint x="1650" y="310"/>
                        </Array>
                    </mxGeometry>
                </mxCell>
                <mxCell id="81" value="&lt;font color=&quot;#000000&quot;&gt;M&lt;/font&gt;" style="whiteSpace=wrap;html=1;aspect=fixed;fillColor=#d5e8d4;strokeColor=#82b366;" vertex="1" parent="1">
                    <mxGeometry x="1500" y="280" width="60" height="60" as="geometry"/>
                </mxCell>
                <mxCell id="96" style="edgeStyle=none;html=1;exitX=1;exitY=0.5;exitDx=0;exitDy=0;entryX=0;entryY=0.25;entryDx=0;entryDy=0;" edge="1" parent="1" source="84" target="95">
                    <mxGeometry relative="1" as="geometry"/>
                </mxCell>
                <mxCell id="84" value="&lt;font color=&quot;#000000&quot;&gt;PC&lt;br&gt;&lt;/font&gt;" style="whiteSpace=wrap;html=1;aspect=fixed;fillColor=#d5e8d4;strokeColor=#82b366;" vertex="1" parent="1">
                    <mxGeometry x="900" y="600" width="60" height="60" as="geometry"/>
                </mxCell>
                <mxCell id="87" style="edgeStyle=none;html=1;exitX=0;exitY=0.5;exitDx=0;exitDy=0;entryX=0.25;entryY=1;entryDx=0;entryDy=0;" edge="1" parent="1" source="86" target="80">
                    <mxGeometry relative="1" as="geometry">
                        <Array as="points">
                            <mxPoint x="1100" y="33"/>
                            <mxPoint x="1100" y="78"/>
                        </Array>
                    </mxGeometry>
                </mxCell>
                <mxCell id="111" style="edgeStyle=none;html=1;exitX=1;exitY=0;exitDx=0;exitDy=0;entryX=0;entryY=0;entryDx=0;entryDy=0;" edge="1" parent="1" source="86" target="98">
                    <mxGeometry relative="1" as="geometry"/>
                </mxCell>
                <mxCell id="86" value="&lt;font color=&quot;#000000&quot;&gt;SP reg&lt;/font&gt;" style="rounded=0;whiteSpace=wrap;html=1;fillColor=#FFE6CC;" vertex="1" parent="1">
                    <mxGeometry x="1130" y="20" width="60" height="25" as="geometry"/>
                </mxCell>
                <mxCell id="89" value="" style="endArrow=classic;html=1;entryX=0.75;entryY=1;entryDx=0;entryDy=0;" edge="1" parent="1" target="80">
                    <mxGeometry width="50" height="50" relative="1" as="geometry">
                        <mxPoint x="1080" y="113" as="sourcePoint"/>
                        <mxPoint x="1140" y="100" as="targetPoint"/>
                    </mxGeometry>
                </mxCell>
                <mxCell id="92" value="&lt;font style=&quot;font-size: 14px&quot;&gt;2&lt;/font&gt;" style="edgeLabel;html=1;align=center;verticalAlign=middle;resizable=0;points=[];" vertex="1" connectable="0" parent="89">
                    <mxGeometry x="-0.56" relative="1" as="geometry">
                        <mxPoint y="-13" as="offset"/>
                    </mxGeometry>
                </mxCell>
                <mxCell id="91" value="" style="endArrow=classic;html=1;entryX=1;entryY=0.5;entryDx=0;entryDy=0;" edge="1" parent="1" target="80">
                    <mxGeometry width="50" height="50" relative="1" as="geometry">
                        <mxPoint x="1150" y="160" as="sourcePoint"/>
                        <mxPoint x="1140" y="122.5" as="targetPoint"/>
                    </mxGeometry>
                </mxCell>
                <mxCell id="94" value="&lt;font style=&quot;font-size: 14px&quot;&gt;Push or pop signal&lt;/font&gt;" style="edgeLabel;html=1;align=center;verticalAlign=middle;resizable=0;points=[];" vertex="1" connectable="0" parent="91">
                    <mxGeometry x="-0.5" relative="1" as="geometry">
                        <mxPoint as="offset"/>
                    </mxGeometry>
                </mxCell>
                <mxCell id="95" value="&lt;font color=&quot;#000000&quot;&gt;PC&lt;br&gt;&lt;/font&gt;" style="whiteSpace=wrap;html=1;aspect=fixed;fillColor=#d5e8d4;strokeColor=#82b366;" vertex="1" parent="1">
                    <mxGeometry x="1200" y="610" width="60" height="60" as="geometry"/>
                </mxCell>
                <mxCell id="100" style="edgeStyle=none;html=1;exitX=1;exitY=0.5;exitDx=0;exitDy=0;entryX=0;entryY=0;entryDx=0;entryDy=0;" edge="1" parent="1" source="97" target="99">
                    <mxGeometry relative="1" as="geometry"/>
                </mxCell>
                <mxCell id="97" value="&lt;font color=&quot;#000000&quot;&gt;SP&lt;br&gt;&lt;/font&gt;" style="whiteSpace=wrap;html=1;aspect=fixed;fillColor=#d5e8d4;strokeColor=#82b366;" vertex="1" parent="1">
                    <mxGeometry x="1200" y="390" width="60" height="60" as="geometry"/>
                </mxCell>
                <mxCell id="115" style="edgeStyle=none;html=1;exitX=1;exitY=0.5;exitDx=0;exitDy=0;" edge="1" parent="1" source="98">
                    <mxGeometry relative="1" as="geometry">
                        <mxPoint x="1340" y="55" as="targetPoint"/>
                    </mxGeometry>
                </mxCell>
                <mxCell id="116" value="&lt;font style=&quot;font-size: 14px&quot;&gt;SP&lt;/font&gt;" style="edgeLabel;html=1;align=center;verticalAlign=middle;resizable=0;points=[];" vertex="1" connectable="0" parent="115">
                    <mxGeometry x="0.5" y="2" relative="1" as="geometry">
                        <mxPoint y="-13" as="offset"/>
                    </mxGeometry>
                </mxCell>
                <mxCell id="98" value="&lt;div&gt;&lt;font color=&quot;#000000&quot;&gt;M&lt;/font&gt;&lt;/div&gt;&lt;div&gt;&lt;font color=&quot;#000000&quot;&gt;U&lt;/font&gt;&lt;/div&gt;&lt;div&gt;&lt;font color=&quot;#000000&quot;&gt;X&lt;/font&gt;&lt;/div&gt;" style="ellipse;whiteSpace=wrap;html=1;fillColor=#e1d5e7;strokeColor=#9673a6;" vertex="1" parent="1">
                    <mxGeometry x="1270" y="20" width="30" height="70" as="geometry"/>
                </mxCell>
                <mxCell id="104" style="edgeStyle=none;html=1;exitX=0.5;exitY=1;exitDx=0;exitDy=0;entryX=0;entryY=0.25;entryDx=0;entryDy=0;" edge="1" parent="1" source="99" target="j_qc3P-5auPdPMbNX9wX-45">
                    <mxGeometry relative="1" as="geometry">
                        <Array as="points">
                            <mxPoint x="1300" y="490"/>
                        </Array>
                    </mxGeometry>
                </mxCell>
                <mxCell id="99" value="&lt;div&gt;&lt;font color=&quot;#000000&quot;&gt;M&lt;/font&gt;&lt;/div&gt;&lt;div&gt;&lt;font color=&quot;#000000&quot;&gt;U&lt;/font&gt;&lt;/div&gt;&lt;div&gt;&lt;font color=&quot;#000000&quot;&gt;X&lt;/font&gt;&lt;/div&gt;" style="ellipse;whiteSpace=wrap;html=1;fillColor=#e1d5e7;strokeColor=#9673a6;" vertex="1" parent="1">
                    <mxGeometry x="1285" y="412.5" width="30" height="70" as="geometry"/>
                </mxCell>
                <mxCell id="109" style="edgeStyle=none;html=1;" edge="1" parent="1" target="99">
                    <mxGeometry relative="1" as="geometry">
                        <mxPoint x="1300" y="360" as="sourcePoint"/>
                    </mxGeometry>
                </mxCell>
                <mxCell id="110" value="&lt;span style=&quot;font-size: 14px&quot;&gt;Push or &lt;br&gt;pop signal&lt;/span&gt;" style="edgeLabel;html=1;align=center;verticalAlign=middle;resizable=0;points=[];rotation=90;" vertex="1" connectable="0" parent="109">
                    <mxGeometry x="0.3714" relative="1" as="geometry">
                        <mxPoint y="-41" as="offset"/>
                    </mxGeometry>
                </mxCell>
                <mxCell id="113" value="" style="endArrow=classic;html=1;entryX=0.5;entryY=1;entryDx=0;entryDy=0;" edge="1" parent="1" target="98">
                    <mxGeometry width="50" height="50" relative="1" as="geometry">
                        <mxPoint x="1285" y="140" as="sourcePoint"/>
                        <mxPoint x="1300" y="90" as="targetPoint"/>
                    </mxGeometry>
                </mxCell>
                <mxCell id="114" value="&lt;span style=&quot;font-size: 14px&quot;&gt;Push or pop signal&lt;/span&gt;" style="edgeLabel;html=1;align=center;verticalAlign=middle;resizable=0;points=[];" vertex="1" connectable="0" parent="113">
                    <mxGeometry x="-0.4" relative="1" as="geometry">
                        <mxPoint as="offset"/>
                    </mxGeometry>
                </mxCell>
            </root>
        </mxGraphModel>
    </diagram>
</mxfile>